<mxfile host="app.diagrams.net" modified="2023-02-07T06:34:10.752Z" agent="5.0 (Windows NT 10.0; Win64; x64) AppleWebKit/537.36 (KHTML, like Gecko) Chrome/109.0.0.0 Safari/537.36" etag="GLd_KhmOH2hlP3b7vNJL" version="20.8.16" type="github">
  <diagram name="Page-1" id="KF7dVxH2Kp_PAsVpVCAL">
    <mxGraphModel dx="880" dy="452" grid="1" gridSize="10" guides="1" tooltips="1" connect="1" arrows="1" fold="1" page="1" pageScale="1" pageWidth="850" pageHeight="1100" math="0" shadow="0">
      <root>
        <mxCell id="0" />
        <mxCell id="1" parent="0" />
        <mxCell id="jhIOBsuXFK59NcRg1cyb-6" style="edgeStyle=orthogonalEdgeStyle;rounded=0;orthogonalLoop=1;jettySize=auto;html=1;" edge="1" parent="1" source="jhIOBsuXFK59NcRg1cyb-1" target="jhIOBsuXFK59NcRg1cyb-3">
          <mxGeometry relative="1" as="geometry" />
        </mxCell>
        <mxCell id="jhIOBsuXFK59NcRg1cyb-1" value="Thái" style="shape=umlActor;verticalLabelPosition=bottom;verticalAlign=top;html=1;outlineConnect=0;" vertex="1" parent="1">
          <mxGeometry x="110" y="130" width="30" height="60" as="geometry" />
        </mxCell>
        <mxCell id="jhIOBsuXFK59NcRg1cyb-7" style="edgeStyle=orthogonalEdgeStyle;rounded=0;orthogonalLoop=1;jettySize=auto;html=1;entryX=0.5;entryY=0.5;entryDx=0;entryDy=0;entryPerimeter=0;" edge="1" parent="1" source="jhIOBsuXFK59NcRg1cyb-3" target="jhIOBsuXFK59NcRg1cyb-4">
          <mxGeometry relative="1" as="geometry" />
        </mxCell>
        <mxCell id="jhIOBsuXFK59NcRg1cyb-3" value="Hiếu" style="shape=umlActor;verticalLabelPosition=bottom;verticalAlign=top;html=1;outlineConnect=0;" vertex="1" parent="1">
          <mxGeometry x="260" y="130" width="30" height="60" as="geometry" />
        </mxCell>
        <mxCell id="jhIOBsuXFK59NcRg1cyb-9" style="edgeStyle=orthogonalEdgeStyle;rounded=0;orthogonalLoop=1;jettySize=auto;html=1;entryX=0.5;entryY=0.5;entryDx=0;entryDy=0;entryPerimeter=0;" edge="1" parent="1" source="jhIOBsuXFK59NcRg1cyb-4" target="jhIOBsuXFK59NcRg1cyb-5">
          <mxGeometry relative="1" as="geometry" />
        </mxCell>
        <mxCell id="jhIOBsuXFK59NcRg1cyb-4" value="Danh" style="shape=umlActor;verticalLabelPosition=bottom;verticalAlign=top;html=1;outlineConnect=0;" vertex="1" parent="1">
          <mxGeometry x="440" y="140" width="30" height="60" as="geometry" />
        </mxCell>
        <mxCell id="jhIOBsuXFK59NcRg1cyb-5" value="Trung" style="shape=umlActor;verticalLabelPosition=bottom;verticalAlign=top;html=1;outlineConnect=0;" vertex="1" parent="1">
          <mxGeometry x="620" y="140" width="30" height="60" as="geometry" />
        </mxCell>
        <mxCell id="jhIOBsuXFK59NcRg1cyb-8" value="nhờ chuyển khoản" style="text;html=1;align=center;verticalAlign=middle;resizable=0;points=[];autosize=1;strokeColor=none;fillColor=none;" vertex="1" parent="1">
          <mxGeometry x="310" y="125" width="120" height="30" as="geometry" />
        </mxCell>
        <mxCell id="jhIOBsuXFK59NcRg1cyb-10" value="tạo account" style="text;html=1;align=center;verticalAlign=middle;resizable=0;points=[];autosize=1;strokeColor=none;fillColor=none;" vertex="1" parent="1">
          <mxGeometry x="515" y="125" width="90" height="30" as="geometry" />
        </mxCell>
        <mxCell id="jhIOBsuXFK59NcRg1cyb-11" value="đưa tiền mặt" style="text;html=1;align=center;verticalAlign=middle;resizable=0;points=[];autosize=1;strokeColor=none;fillColor=none;" vertex="1" parent="1">
          <mxGeometry x="160" y="125" width="90" height="30" as="geometry" />
        </mxCell>
      </root>
    </mxGraphModel>
  </diagram>
</mxfile>
